<?xml version="1.0" standalone="no"?>
<!DOCTYPE svg PUBLIC "-//W3C//DTD SVG 20010904//EN"
 "http://www.w3.org/TR/2001/REC-SVG-20010904/DTD/svg10.dtd">
<svg version="1.0" xmlns="http://www.w3.org/2000/svg"
 width="80.000000pt" height="80.000000pt" viewBox="0 0 80.000000 80.000000"
 preserveAspectRatio="xMidYMid meet">
<metadata>
Created by potrace 1.14, written by Peter Selinger 2001-2017
</metadata>
<g transform="translate(0.000000,80.000000) scale(0.100000,-0.100000)"
fill="#000000" stroke="none">
<path d="M652 766 c1 -10 8 -17 13 -17 15 1 12 24 -3 29 -9 3 -13 -2 -10 -12z"/>
<path d="M395 743 c-42 -5 -83 -22 -132 -55 -70 -47 -82 -84 -85 -270 -1 -94
2 -121 14 -135 9 -10 21 -35 26 -56 10 -34 8 -46 -16 -95 -15 -32 -30 -58 -33
-60 -3 -1 -29 -17 -57 -36 l-51 -33 46 -2 c25 0 52 4 59 10 10 8 14 8 14 0 0
-7 29 -11 87 -11 82 0 86 1 65 16 -12 8 -20 20 -16 25 3 5 1 16 -6 24 -12 14
-12 14 70 -13 8 -3 24 -7 35 -9 10 -2 22 -9 26 -15 4 -6 15 -8 24 -4 13 4 16
2 11 -9 -4 -13 7 -15 71 -15 68 0 74 2 62 16 -7 9 -22 20 -34 24 -15 7 -16 9
-4 9 9 1 27 -10 40 -23 21 -21 34 -24 99 -25 52 0 70 2 60 9 -13 8 -11 11 8
16 12 4 22 10 22 15 0 12 -41 11 -59 0 -15 -10 -91 22 -91 37 0 4 9 18 19 31
16 20 28 24 75 25 l56 1 0 123 0 122 -80 0 c-57 0 -80 4 -81 13 0 6 0 39 1 72
2 100 -30 175 -95 227 -36 28 -114 55 -150 51z m20 -128 c46 0 67 -11 84 -42
10 -20 9 -23 -6 -23 -17 -1 -16 -2 1 -15 19 -14 18 -15 -11 -15 -18 0 -34 -4
-37 -9 -7 -10 16 -21 43 -21 10 0 25 -8 34 -17 15 -17 12 -18 -46 -18 l-62 0
-1 -48 c-1 -57 -9 -67 -48 -60 -28 6 -28 6 -8 22 33 27 37 57 8 76 -23 15 -30
15 -76 2 -44 -13 -49 -13 -39 0 22 26 71 45 112 45 15 -1 16 2 6 14 -9 11 -23
13 -50 9 -47 -8 -65 1 -47 22 6 8 13 21 14 28 1 7 10 25 20 39 14 23 22 26 43
20 14 -5 44 -8 66 -9z m-98 -191 c-3 -3 -12 -4 -19 -1 -8 3 -5 6 6 6 11 1 17
-2 13 -5z m46 -24 c-3 -8 -19 -24 -36 -35 -17 -11 -36 -32 -41 -47 -9 -24 -5
-31 33 -68 24 -22 50 -40 57 -40 8 0 14 -7 14 -15 0 -8 7 -15 15 -15 8 0 15 4
15 9 0 4 11 6 25 3 28 -5 34 -22 8 -22 -15 0 -16 -2 -3 -10 11 -7 8 -9 -14 -7
-17 1 -31 -4 -34 -12 -3 -9 0 -11 9 -6 8 5 11 4 6 0 -24 -26 -122 6 -163 54
-25 28 -47 99 -36 115 3 6 5 24 4 40 -4 53 18 71 85 71 49 0 59 -2 56 -15z
m189 -26 c-8 -90 -7 -109 6 -106 6 1 12 -2 12 -8 0 -11 -35 -49 -47 -51 -25
-5 -53 -6 -53 -3 0 2 11 27 24 54 26 54 23 63 -25 69 -9 1 -9 5 0 14 8 11 6
18 -9 32 -30 27 -25 34 28 38 67 5 67 4 64 -39z m-219 -51 c-7 -2 -9 -11 -6
-19 3 -8 -1 -14 -10 -14 -16 0 -16 11 -2 43 6 14 10 16 19 6 8 -8 8 -13 -1
-16z m115 -55 c-8 -23 -55 -33 -82 -18 -36 19 -23 30 35 30 36 0 49 -4 47 -12z
m-242 -195 c-10 -10 -19 5 -10 18 6 11 8 11 12 0 2 -7 1 -15 -2 -18z m18 -21
c2 -4 -7 -12 -20 -19 -17 -8 -24 -8 -24 0 0 6 -6 2 -14 -9 -15 -19 -15 -19
-12 1 2 11 10 20 19 20 8 0 19 4 23 8 9 9 22 9 28 -1z"/>
<path d="M496 244 c-9 -22 3 -32 14 -14 12 19 12 30 1 30 -5 0 -12 -7 -15 -16z"/>
<path d="M771 496 l-24 -26 24 -9 c20 -7 25 -5 27 10 2 11 2 26 0 35 -2 13 -8
11 -27 -10z"/>
<path d="M2 395 c3 -67 6 -80 21 -83 12 -3 17 3 17 21 0 13 -3 26 -6 30 -4 3
-8 25 -9 48 -2 23 -9 47 -15 53 -8 8 -10 -10 -8 -69z"/>
</g>
</svg>
